#!OML:ASF H:\ManfredETheater\Project 1\Capture day 1\Session 1\subject.ASF
:FULLY-SPECIFIED
:DEGREES
431
root 1.97166 17.2714 -40.4539 -160.918 -11.0936 168.357
lowerback 11.0829 -5.83974 -8.46584
upperback -0.890483 -8.97698 0.103172
thorax -5.82684 -4.17326 6.15015
lowerneck -24.9883 -0.605901 -3.43221
upperneck 7.93542 0.220697 2.27781
head 6.37103 0.309144 1.33156
rclavicle 4.81556e-014 4.17448e-015
rhumerus -89.8625 5.1344 -79.9318
rradius 80.7288
rwrist -21.1492
rhand -32.3507 16.1043
rfingers 7.12502
rthumb -5.58735 -13.8021
lclavicle 4.81556e-014 4.17448e-015
lhumerus 15.4704 0.359436 71.2957
lradius 132.008
lwrist 24.6183
lhand -26.9925 -5.0055
lfingers 7.12502
lthumb -0.412819 24.9738
rfemur -65.3727 -10.4775 10.2926
rtibia 45.6821
rfoot 0.204774 -7.16913
rtoes -12.0403
lfemur 6.95504 -8.0347 -28.3013
ltibia 28.0082
lfoot 12.1683 -6.08386
ltoes -20.2813
432
root 1.98377 17.3314 -41.1477 -161.535 -10.6839 168.376
lowerback 10.9593 -5.87302 -8.46794
upperback -0.794394 -9.00899 0.07591
thorax -5.65357 -4.20458 6.10104
lowerneck -24.921 -0.492648 -3.49484
upperneck 8.22934 0.383379 2.14676
head 6.45267 0.361538 1.31858
rclavicle 1.39149e-015 -1.63003e-014
rhumerus -91.2665 5.24756 -79.261
rradius 81.8398
rwrist -20.9553
rhand -32.3304 16.2543
rfingers 7.12502
rthumb -5.56771 -13.6526
lclavicle 1.39149e-015 -1.63003e-014
lhumerus 16.7144 2.78765 69.2254
lradius 133.219
lwrist 25.9887
lhand -27.1027 -4.66577
lfingers 7.12502
lthumb -0.519263 25.3133
rfemur -63.9394 -10.0491 10.1293
rtibia 41.2877
rfoot 1.32359 -7.60818
rtoes -12.9483
lfemur 9.07577 -8.01149 -28.35
ltibia 27.4291
lfoot 16.0058 -6.0701
ltoes -15.6427
433
root 1.99457 17.3798 -41.8378 -162.134 -10.2685 168.291
lowerback 10.8742 -5.86589 -8.53408
upperback -0.723715 -9.00521 0.0064766
thorax -5.53272 -4.21336 6.04616
lowerneck -24.7478 -0.409682 -3.54976
upperneck 8.48919 0.505104 1.98136
head 6.50861 0.390568 1.28735
rclavicle 5.38706e-014 3.79679e-014
rhumerus -92.448 5.27551 -78.5783
rradius 82.8677
rwrist -20.6532
rhand -32.3326 16.4456
rfingers 7.12502
rthumb -5.56988 -13.4612
lclavicle 5.38706e-014 3.79679e-014
lhumerus 17.7119 4.97917 67.3484
lradius 134.053
lwrist 27.0557
lhand -27.2554 -4.38386
lfingers 7.12502
lthumb -0.666796 25.5948
rfemur -62.5902 -9.8032 10.0708
rtibia 37.526
rfoot 2.03745 -8.37692
rtoes -13.8402
lfemur 10.8069 -8.01453 -28.5572
ltibia 27.6192
lfoot 18.4856 -5.756
ltoes -11.4384
434
root 2.004 17.416 -42.5231 -162.699 -9.86289 168.109
lowerback 10.8323 -5.825 -8.66244
upperback -0.689963 -8.97368 -0.0923676
thorax -5.47596 -4.20219 6.00041
lowerneck -24.4769 -0.35009 -3.59787
upperneck 8.71766 0.596528 1.77704
head 6.54048 0.401379 1.23784
rclavicle -5.04913e-014 2.48481e-014
rhumerus -93.3851 5.21477 -77.8682
rradius 83.811
rwrist -20.2441
rhand -32.3292 16.6132
rfingers 7.12502
rthumb -5.56661 -13.2936
lclavicle -5.04913e-014 2.48481e-014
lhumerus 18.3544 6.78613 65.661
lradius 134.584
lwrist 27.6701
lhand -27.4009 -4.20149
lfingers 7.12502
lthumb -0.807246 25.7767
rfemur -61.4125 -9.7737 10.1603
rtibia 34.5468
rfoot 2.56379 -9.38254
rtoes -13.8751
lfemur 12.0924 -8.0399 -28.8975
ltibia 28.6479
lfoot 19.7325 -5.22162
ltoes -7.99859
435
root 2.01205 17.4394 -43.2024 -163.227 -9.46725 167.854
lowerback 10.8081 -5.75187 -8.83652
upperback -0.675937 -8.90998 -0.209052
thorax -5.45171 -4.17179 5.96154
lowerneck -24.1298 -0.319981 -3.66542
upperneck 8.90175 0.655617 1.56257
head 6.54698 0.39589 1.18361
rclavicle -6.24184e-014 -5.32743e-014
rhumerus -94.024 5.05223 -77.1361
rradius 84.658
rwrist -19.7278
rhand -32.3494 16.7951
rfingers 7.12502
rthumb -5.58612 -13.1113
lclavicle -6.24184e-014 -5.32743e-014
lhumerus 18.561 8.10872 64.16
lradius 134.915
lwrist 27.7237
lhand -27.4691 -4.10104
lfingers 7.12502
lthumb -0.873121 25.8769
rfemur -60.4799 -9.97007 10.4375
rtibia 32.458
rfoot 2.99135 -10.4965
rtoes -12.721
lfemur 12.9131 -8.08002 -29.3364
ltibia 30.5003
lfoot 20.0546 -4.54314
ltoes -5.43889
436
root 2.0191 17.4522 -43.8763 -163.73 -9.07317 167.554
lowerback 10.8 -5.64331 -9.04506
upperback -0.665709 -8.80674 -0.332723
thorax -5.44328 -4.1202 5.93248
lowerneck -23.7563 -0.319771 -3.76061
upperneck 9.05527 0.683707 1.35612
head 6.53994 0.376669 1.13261
rclavicle -5.12864e-014 -4.21423e-014
rhumerus -94.3284 4.78012 -76.4031
rradius 85.4106
rwrist -19.16
rhand -32.3934 16.9799
rfingers 7.12502
rthumb -5.6286 -12.9253
lclavicle -5.12864e-014 -4.21423e-014
lhumerus 18.2612 8.89895 62.8441
lradius 135.134
lwrist 27.2085
lhand -27.4352 -4.15769
lfingers 7.12502
lthumb -0.840455 25.8204
rfemur -59.8055 -10.4036 10.9566
rtibia 31.322
rfoot 3.43008 -11.4811
rtoes -10.6295
lfemur 13.2929 -8.12924 -29.8379
ltibia 33.0802
lfoot 19.7793 -3.8554
ltoes -3.67893
437
root 2.02544 17.4549 -44.5455 -164.237 -8.66058 167.256
lowerback 10.8002 -5.48639 -9.26405
upperback -0.637358 -8.64073 -0.453111
thorax -5.4285 -4.0386 5.9058
lowerneck -23.3668 -0.358753 -3.89909
upperneck 9.17265 0.6702 1.17784
head 6.5192 0.340196 1.09282
rclavicle 3.02153e-014 7.95139e-016
rhumerus -94.2555 4.36415 -75.6716
rradius 86.0577
rwrist -18.6017
rhand -32.4343 17.124
rfingers 7.12502
rthumb -5.66807 -12.7802
lclavicle 3.02153e-014 7.95139e-016
lhumerus 17.4224 9.12742 61.7441
lradius 135.324
lwrist 26.1234
lhand -27.2793 -4.24904
lfingers 7.12502
lthumb -0.689888 25.7296
rfemur -59.3595 -11.0307 11.7236
rtibia 31.1069
rfoot 3.99987 -12.1445
rtoes -7.67803
lfemur 13.2897 -8.16246 -30.3587
ltibia 36.2588
lfoot 19.1248 -3.38934
ltoes -2.75221
